<svg xmlns="http://www.w3.org/2000/svg" height="64" width="64" viewBox="0 0 16 16" version="1.1">
    <path transform="translate(131,191)" d="m0 0h100l2 3v122l1 21 3 22 8 24 12 22 12 14 1 3h2l5 5 13 11 16 9 10 5 18 6 18 3 10 1h59l21-2 26-8 21-11 13-10 10-9 11-12 9-14 8-16 6-18 3-17 1-10 1-142 2-2h557l3 3v125l2 27 3 17 7 20 12 22 12 14 1 3h2l5 5 13 11 16 9 10 5 18 6 18 3 10 1h59l21-2 26-8 21-11 13-10 10-9 11-12 9-14 8-16 6-18 3-17 1-10 1-142 2-2h99l26 2 16 4 16 6 18 10 11 9 12 11 11 14 8 13 7 16 5 18 2 16 1 22v612l-1 3-22-3-33-4-37-2-52-1-1-2-1-294h-1361l-12-1v760l2 25 4 16 8 16 6 9 11 12 10 8 14 8 15 5 17 3 712 1 2 2v62l3 44 7 47v5l-1 1h-832l-20-2-21-6-17-8-11-7-13-11-5-5-10-11-7-10-7-12-6-15-5-18-1-3v-1257l8-26 8-16 6-10 8-10 9-10 9-8 13-9 12-7 16-6 17-4z"/>
    <path transform="translate(1542,1047)" d="m0 0h13l38 2 27 3 35 6 25 6 25 7 40 15 28 13 23 12 20 12 24 16 17 13 13 11 11 9 10 9 29 29 9 11 9 10 9 12 14 19 10 15 13 22 12 22 11 23 13 33 11 35 7 30 5 26 3 21 2 2v106h-2l-6 39-6 27-7 27-12 34-9 21-14 30-12 21-13 21-12 17-9 12-10 13-10 11-7 8-11 12-5 6-8 7-14 13-8 7-16 13-14 10-15 11-20 12-22 13-37 18-29 11-27 9-40 10-43 7-22 2-19 1h-35l-32-2-37-5-37-8-40-12-28-11-18-8-32-16-23-14-15-10-22-16-10-8-28-24-27-27-9-11-9-10-13-17-13-18-9-14-15-25-14-27-11-25-12-32-9-31-7-34-5-30-3-40-1-25 1-27 4-37 5-30 8-34 12-38 14-34 12-25 7-12 6-12 26-39 12-15 7-9 9-11 15-16 5-6h2l2-4 15-14 11-10 11-9 17-13 18-13 22-14 21-12 20-10 15-7 29-12 31-10 27-7 35-7 34-4zm-14 170-28 3-29 6-23 7-22 8-26 12-22 13-12 8-16 12-11 9-16 15-11 11-7 8-8 9-14 19-7 10-5 9-10 17-9 19-6 15-7 20-7 26-5 29-2 23v39l3 29 5 26 7 25 7 20 9 21 10 19 12 20 10 14 10 13 10 11 7 8 15 15 8 7 12 10 19 14 25 15 16 8 17 8 28 10 23 6 21 4 24 3 15 1h28l25-2 27-4 30-8 23-8 16-7 23-11 23-14 19-14 16-13 7-7 8-7 7-7v-2h2l7-8 2-4h2l15-20 9-13 9-15 7-12 12-26 10-28 7-27 4-22 2-17 1-18v-27l-2-26-5-30-7-27-11-30-14-29-9-16-12-18-12-16-9-10-14-16-8-7-14-13-17-13-10-7-21-13-25-13-19-8-27-9-24-6-24-4-23-2z"/>
    <path transform="translate(1505,1495)" d="m0 0h302l2 2-2 31-4 27-6 25-9 27-8 19-10 19-9 15-9 13-13 17-10 11-7 8-9 9-8 7-13 11-17 12-19 12-25 13-25 10-19 6-25 6-29 4-12 1h-17l-1-1v-302z" fill="#020202"/>
    <path transform="translate(1249,7)" d="m0 0h41l16 1 13 4 10 6 10 9 7 10 5 13 1 5 1 25v183l-1 74-4 14-9 14-7 7-14 8-16 4h-62l-12-3-12-6-12-11-8-13-3-8-2-17v-264l2-13 5-12 8-11 7-7 11-7 13-4z" fill="#020202"/>
    <path transform="translate(369,7)" d="m0 0h41l16 1 13 4 10 6 10 9 7 10 5 13 1 5 1 25v173l-1 84-4 14-9 14-7 7-14 8-16 4h-62l-12-3-12-6-12-11-8-13-3-8-2-17v-264l2-13 5-12 8-11 7-7 11-7 13-4z" fill="#020202"/>
    <path transform="translate(1199,753)" d="m0 0h28l17 3 18 6 21 11 16 13 11 11 10 13 11 21 6 19 2 9 1 9v23l-2 15-6 20-8 17-7 11-12 14-8 8-13 10-10 6-16 7-21 6-13 2h-24l-17-3-21-7-17-9-13-10-10-9-10-11-10-15-9-19-5-17-3-22v-9l3-23 6-20 8-16 9-14 13-15 13-11 11-7 15-8 15-5 14-3z"/>
    <path transform="translate(829,1136)" d="m0 0 18 1 17 3 20 7 18 10 10 8 10 9 7 7 10 13 11 21 6 19 3 17v26l-4 21-7 19-10 18-8 10-9 10-11 10-14 9-19 9-17 5-18 3h-22l-18-3-21-7-17-9-13-10-12-11-11-13-9-15-7-15-5-17-3-22v-9l3-23 7-22 8-16 7-11 10-11 5-6 11-9 10-7 17-9 18-6 17-3z"/>
    <path transform="translate(437,753)" d="m0 0h28l17 3 18 6 21 11 10 8 10 9 8 8 10 14 10 19 5 15 3 14 2 20-2 20-4 17-6 16-11 20-11 13-11 11-15 11-15 8-21 7-13 3-8 1h-23l-14-2-23-7-19-10-13-10-12-11-11-13-9-15-7-15-5-17-3-24 1-16 2-14 7-22 8-16 9-13 12-14 12-10 10-7 17-9 15-5 13-3z"/>
    <path transform="translate(449,1136)" d="m0 0 17 1 16 3 21 7 18 10 14 11 5 4 7 8 11 14 11 21 5 15 3 14 2 20-3 26-6 20-8 16-7 12-11 13-9 9-13 10-16 9-16 6-21 5-8 1h-21l-19-3-21-7-17-9-13-10-12-11-11-13-9-15-7-15-5-17-3-24 1-16 2-14 7-22 8-16 9-13 12-14 12-10 10-7 17-9 18-6 17-3z"/>
    <path transform="translate(818,753)" d="m0 0h28l17 3 18 6 16 8 10 7 11 9 11 11 11 15 10 19 6 19 3 17v26l-4 21-7 19-9 17-9 11-9 10-11 10-14 9-16 8-20 6-17 3h-23l-14-2-20-6-17-8-12-8-13-11-7-7-11-14-9-16-6-14-5-19-2-17v-9l3-23 7-22 8-16 7-11 10-11 5-6 11-9 10-7 17-9 15-5 13-3z"/>
</svg>
